<svg width="45" height="36" viewBox="0 0 45 36" fill="none" xmlns="http://www.w3.org/2000/svg">
<path d="M10.7136 14.2454C13.3162 14.2454 15.433 11.0563 15.433 7.13615C15.433 3.21695 13.3162 0.027832 10.7136 0.027832C8.11104 0.027832 5.99376 3.21695 5.99376 7.13615C5.99376 11.0563 8.11152 14.2454 10.7136 14.2454Z" fill="#C271FF"/>
<path d="M33.1709 14.2454C35.7734 14.2454 37.8907 11.0563 37.8907 7.13615C37.8907 3.21695 35.7734 0.027832 33.1709 0.027832C30.5688 0.027832 28.452 3.21695 28.452 7.13615C28.452 11.0563 30.5693 14.2454 33.1709 14.2454Z" fill="#C271FF"/>
<path d="M42.8614 19.9344C42.5624 19.6785 42.1502 19.6493 41.834 19.8671C36.7573 23.336 29.8699 25.7485 22.4397 26.6608C15.0113 27.5729 7.74445 26.8983 1.97894 24.7612C1.61916 24.6279 1.22529 24.7546 0.998819 25.0749C0.771087 25.396 0.759877 25.8423 0.970651 26.1859C4.09775 31.2913 13.2359 34.0023 23.1915 32.7799C33.1511 31.557 41.3622 26.7143 43.1587 21.0048C43.2793 20.6211 43.1595 20.1904 42.8614 19.9344Z" fill="#C271FF"/>
</svg>
